<?xml version="1.0" standalone="no"?>
<!DOCTYPE svg PUBLIC "-//W3C//DTD SVG 20010904//EN"
 "http://www.w3.org/TR/2001/REC-SVG-20010904/DTD/svg10.dtd">
<svg version="1.0" xmlns="http://www.w3.org/2000/svg"
 width="250.000000pt" height="250.000000pt" viewBox="0 0 250.000000 250.000000"
 preserveAspectRatio="xMidYMid meet">
<metadata>
Created by potrace 1.14, written by Peter Selinger 2001-2017
</metadata>
<g transform="translate(0.000000,250.000000) scale(0.100000,-0.100000)"
fill="#FFFFFF" stroke="none">
<path d="M0 1250 l0 -1250 1250 0 1250 0 0 1250 0 1250 -1250 0 -1250 0 0
-1250z m1089 697 c54 -36 91 -110 91 -184 l0 -53 65 0 65 0 0 53 c0 71 37 145
92 183 41 29 42 29 222 32 197 4 236 -2 287 -45 60 -51 69 -87 69 -284 0 -174
0 -178 -28 -230 -36 -69 -105 -109 -188 -109 l-54 0 0 -64 0 -63 65 -5 c91 -8
145 -41 180 -112 26 -54 27 -56 23 -239 l-3 -185 -30 -43 c-16 -23 -50 -53
-74 -66 -42 -22 -55 -23 -226 -23 -171 0 -184 1 -226 23 -63 34 -102 100 -107
183 l-4 64 -63 0 -63 0 -4 -64 c-5 -83 -44 -149 -107 -183 -42 -22 -55 -23
-225 -23 -169 0 -185 2 -226 23 -26 13 -57 40 -75 65 l-30 44 -3 187 -3 186
28 55 c37 70 106 110 189 110 l54 0 0 64 0 63 -65 5 c-91 8 -145 41 -180 112
-26 54 -27 56 -23 239 l3 185 30 43 c17 23 50 53 75 66 44 23 51 24 236 21
190 -3 191 -3 233 -31z"/>
<path d="M683 1838 c-37 -18 -45 -56 -41 -206 4 -191 -6 -182 203 -182 144 0
164 2 178 18 14 16 17 44 17 178 0 87 -4 164 -8 170 -18 27 -55 34 -189 33
-76 0 -148 -5 -160 -11z m212 -152 c11 -17 15 -42 13 -82 -3 -48 -7 -60 -29
-77 -28 -20 -57 -17 -84 9 -22 22 -21 131 2 156 24 27 79 24 98 -6z"/>
<path d="M1490 1839 c-13 -6 -28 -15 -32 -22 -4 -7 -8 -84 -8 -173 0 -143 2
-163 18 -177 16 -14 44 -17 179 -17 205 0 197 -6 201 163 5 165 -2 203 -38
222 -34 18 -278 20 -320 4z m202 -146 c10 -9 18 -30 18 -49 0 -45 -29 -64
-101 -64 -50 0 -60 3 -78 26 -26 33 -27 58 -1 84 26 26 134 29 162 3z"/>
<path d="M1180 1538 c0 -134 -90 -227 -217 -228 l-53 0 0 -64 0 -63 63 -5 c97
-8 151 -43 188 -123 10 -23 19 -63 19 -92 l0 -53 65 0 65 0 0 43 c0 133 90
226 218 227 l52 0 0 65 0 65 -42 0 c-134 0 -227 90 -228 218 l0 52 -65 0 -65
0 0 -42z"/>
<path d="M664 1019 c-16 -18 -19 -40 -22 -152 -4 -151 6 -198 43 -215 33 -15
273 -16 312 -1 15 5 31 16 35 22 4 7 8 84 8 173 0 143 -2 163 -18 177 -16 14
-44 17 -179 17 -150 0 -161 -1 -179 -21z m295 -135 c47 -60 12 -104 -81 -104
-73 0 -98 17 -98 66 0 45 29 64 101 64 50 0 60 -3 78 -26z"/>
<path d="M1467 1022 c-14 -16 -17 -44 -17 -180 l0 -161 26 -20 c24 -19 40 -21
165 -21 81 0 148 5 163 11 40 19 48 54 44 207 -4 191 6 182 -203 182 -144 0
-164 -2 -178 -18z m206 -53 c32 -18 37 -28 37 -93 0 -71 -17 -96 -66 -96 -45
0 -64 29 -64 101 0 50 3 60 26 78 31 24 37 25 67 10z"/>
</g>
</svg>
